<svg xmlns="http://www.w3.org/2000/svg" xmlns:xlink="http://www.w3.org/1999/xlink" width="1014.102" height="660.297" viewBox="0 0 1014.102 660.297">
  <defs>
    <linearGradient id="linear-gradient" y1="0.5" x2="1" y2="0.5" gradientUnits="objectBoundingBox">
      <stop offset="0" stop-color="#b5bbe0" stop-opacity="0"/>
      <stop offset="0.994" stop-color="#27327e"/>
    </linearGradient>
    <radialGradient id="radial-gradient" cx="0.5" cy="0.5" r="1.697" gradientTransform="matrix(-0.285, 0, 0, 0.263, -70.208, 0.526)" gradientUnits="objectBoundingBox">
      <stop offset="0" stop-color="#293686"/>
      <stop offset="1" stop-color="#293686" stop-opacity="0"/>
    </radialGradient>
    <linearGradient id="linear-gradient-2" x1="0.469" y1="0.539" x2="0.569" y2="-0.195" xlink:href="#linear-gradient"/>
    <linearGradient id="linear-gradient-3" x1="0.295" y1="1.025" x2="0.532" y2="0.201" xlink:href="#linear-gradient"/>
    <filter id="Rectangle_31890" x="348.582" y="58.5" width="305.229" height="249.392" filterUnits="userSpaceOnUse">
      <feOffset dx="7" dy="7" input="SourceAlpha"/>
      <feGaussianBlur stdDeviation="2.5" result="blur"/>
      <feFlood flood-color="#e9e9e9" flood-opacity="0.749"/>
      <feComposite operator="in" in2="blur"/>
      <feComposite in="SourceGraphic"/>
    </filter>
    <linearGradient id="linear-gradient-4" y1="0.5" x2="1" y2="0.5" gradientUnits="objectBoundingBox">
      <stop offset="0" stop-color="#2e3d93"/>
      <stop offset="1" stop-color="#5261a3"/>
    </linearGradient>
    <linearGradient id="linear-gradient-5" x1="0.5" y1="0.907" x2="0.5" y2="-0.282" gradientUnits="objectBoundingBox">
      <stop offset="0.285" stop-color="#f4c332"/>
      <stop offset="0.417" stop-color="#f1ce4e"/>
      <stop offset="0.584" stop-color="#efda6c"/>
      <stop offset="0.728" stop-color="#eee17e"/>
      <stop offset="0.83" stop-color="#eee485"/>
    </linearGradient>
    <filter id="Path_143078" x="443.463" y="276.183" width="102.961" height="48.44" filterUnits="userSpaceOnUse">
      <feOffset dx="7" dy="7" input="SourceAlpha"/>
      <feGaussianBlur stdDeviation="2.5" result="blur-2"/>
      <feFlood flood-color="#e9e9e9" flood-opacity="0.749"/>
      <feComposite operator="in" in2="blur-2"/>
      <feComposite in="SourceGraphic"/>
    </filter>
    <linearGradient id="linear-gradient-6" x1="0.5" y1="1.181" x2="0.5" y2="-0.332" gradientUnits="objectBoundingBox">
      <stop offset="0.037" stop-color="#f4c332"/>
      <stop offset="0.229" stop-color="#f1ce4e"/>
      <stop offset="0.472" stop-color="#efda6c"/>
      <stop offset="0.681" stop-color="#eee17e"/>
      <stop offset="0.83" stop-color="#eee485"/>
    </linearGradient>
    <filter id="Path_143079" x="443.463" y="276.183" width="102.961" height="48.44" filterUnits="userSpaceOnUse">
      <feOffset dx="7" dy="7" input="SourceAlpha"/>
      <feGaussianBlur stdDeviation="2.5" result="blur-3"/>
      <feFlood flood-color="#e9e9e9" flood-opacity="0.749"/>
      <feComposite operator="in" in2="blur-3"/>
      <feComposite in="SourceGraphic"/>
    </filter>
    <radialGradient id="radial-gradient-2" cx="0.5" cy="0.5" r="0.407" gradientTransform="matrix(-1.247, -0.709, -1.247, 0.703, -1363.458, -416.044)" gradientUnits="objectBoundingBox">
      <stop offset="0" stop-color="#ef9968"/>
      <stop offset="1" stop-color="#ef9968" stop-opacity="0"/>
    </radialGradient>
    <radialGradient id="radial-gradient-3" cx="0.5" cy="0.5" r="6.362" gradientTransform="matrix(-0.076, 0, 0, 0.07, -32.915, 0.465)" xlink:href="#radial-gradient"/>
    <clipPath id="clip-path">
      <path id="Path_143085" data-name="Path 143085" d="M372.5,522.012l.76,14.187,236.29,2.709c14.122-.191,38.343-33.428-13-40.4C535.913,490.277,372.5,522.012,372.5,522.012Z" fill="#7986c1"/>
    </clipPath>
    <clipPath id="clip-path-2">
      <path id="Path_143088" data-name="Path 143088" d="M527.612,462.128s49.306-51.427,48.044-65.707-10.559-37.86-23.987-20.683c-13.862,17.733-34.852,48.265-43.61,67.1C502.5,454.8,518.3,471.7,527.612,462.128Z" fill="#2c328f"/>
    </clipPath>
    <radialGradient id="radial-gradient-4" cx="0.494" cy="0.515" r="0.627" gradientTransform="matrix(-0.785, -0.017, -0.01, 0.761, 34.938, 4.684)" gradientUnits="objectBoundingBox">
      <stop offset="0" stop-color="#001e5f" stop-opacity="0.949"/>
      <stop offset="0.123" stop-color="#001e5f" stop-opacity="0.906"/>
      <stop offset="0.248" stop-color="#001e5f" stop-opacity="0.776"/>
      <stop offset="0.374" stop-color="#001e5f" stop-opacity="0.565"/>
      <stop offset="0.499" stop-color="#001e5f" stop-opacity="0.267"/>
      <stop offset="0.59" stop-color="#001e5f" stop-opacity="0"/>
    </radialGradient>
    <clipPath id="clip-path-3">
      <path id="Path_143091" data-name="Path 143091" d="M621.73,451c0,7.873-2.545,16.364-4.106,20.869,0,0-10.886,4.565-31.167,4.565a109.47,109.47,0,0,1-30.763-4.565c-3.56-4.756-4.511-9.059-4.511-20.869,0-9.609-11.65-32.348-8.047-43.523,3-9.3,4.143-22.06,9.028-29.936a30.833,30.833,0,0,1,7.3-8.214c8.908-6.917,18.984-7.121,26.994-7.215a60.507,60.507,0,0,1,27.475,6.063c5.13,2.571,9.032,4.527,12.31,8.617,6.747,8.417,5.642,19.373,4.123,32.555C628.14,428.654,621.73,438.162,621.73,451Z" fill="#2c328f"/>
    </clipPath>
    <radialGradient id="radial-gradient-5" cx="0.471" cy="0.506" r="0.378" gradientTransform="matrix(-0.798, 0.009, 0.013, 1.69, -16.703, -0.261)" xlink:href="#radial-gradient-4"/>
    <radialGradient id="radial-gradient-6" cx="0.471" cy="0.506" r="0.301" gradientTransform="matrix(-1, 0.012, 0.025, 2.118, -36.1, -0.352)" gradientUnits="objectBoundingBox">
      <stop offset="0" stop-color="#001e5f" stop-opacity="0.949"/>
      <stop offset="0.123" stop-color="#001e5f" stop-opacity="0.906"/>
      <stop offset="0.247" stop-color="#001e5f" stop-opacity="0.776"/>
      <stop offset="0.373" stop-color="#001e5f" stop-opacity="0.565"/>
      <stop offset="0.499" stop-color="#001e5f" stop-opacity="0.267"/>
      <stop offset="0.59" stop-color="#001e5f" stop-opacity="0"/>
    </radialGradient>
    <clipPath id="clip-path-4">
      <path id="Path_143093" data-name="Path 143093" d="M584.736,368.43c-4.327-.646-4.327-4.378-4.327-7.781l.953-20.333h9.682l1.612,21.953C592.656,366.811,588.506,368.993,584.736,368.43Z" fill="#e9b495"/>
    </clipPath>
    <radialGradient id="radial-gradient-7" cx="0.5" cy="0.5" r="0.539" gradientTransform="matrix(-0.869, 0, 0, 1, -116.726, 0)" xlink:href="#radial-gradient-2"/>
    <clipPath id="clip-path-5">
      <path id="Path_143101" data-name="Path 143101" d="M595.781,475.757c-.211-1.26-.972-2.537-3.686-4.465-3.707-2.634-8.8-4.881-9.425-3.95-.341.512.748,1.871,1.317,2.457,1.205,1.241,2.09,1.1,3.194,2.12,1.225,1.134.81,1.934,1.829,3.555,1.509,2.4,4.652,4.2,6.013,3.363C595.917,478.289,595.935,476.673,595.781,475.757Z" fill="#e9b495"/>
    </clipPath>
    <radialGradient id="radial-gradient-8" cx="0.5" cy="0.5" r="0.5" gradientTransform="matrix(-0.974, -0.225, -0.225, 0.974, -473.213, -53.838)" xlink:href="#radial-gradient-2"/>
    <linearGradient id="linear-gradient-7" x1="-33.222" y1="-1.788" x2="-34.209" y2="-0.971" gradientUnits="objectBoundingBox">
      <stop offset="0" stop-color="#969696"/>
      <stop offset="0.209" stop-color="#989898"/>
      <stop offset="0.34" stop-color="#a1a1a1"/>
      <stop offset="0.451" stop-color="#afafaf"/>
      <stop offset="0.549" stop-color="#c4c4c4"/>
      <stop offset="0.639" stop-color="#dfdfdf"/>
      <stop offset="0.65" stop-color="#e3e3e3"/>
      <stop offset="0.672" stop-color="#d4d4d4"/>
      <stop offset="0.728" stop-color="#b6b6b6"/>
      <stop offset="0.787" stop-color="#9e9e9e"/>
      <stop offset="0.849" stop-color="#8d8d8d"/>
      <stop offset="0.917" stop-color="#838383"/>
      <stop offset="1" stop-color="gray"/>
    </linearGradient>
    <radialGradient id="radial-gradient-9" cx="0.5" cy="0.5" r="6.362" gradientTransform="matrix(-0.076, 0, 0, 0.07, -32.209, 0.465)" xlink:href="#radial-gradient"/>
    <linearGradient id="linear-gradient-8" y1="0.5" x2="1" y2="0.5" gradientUnits="objectBoundingBox">
      <stop offset="0" stop-color="#fff" stop-opacity="0"/>
      <stop offset="1" stop-color="#fff" stop-opacity="0.502"/>
    </linearGradient>
  </defs>
  <g id="Teacher_Value_Proposition_Hero" data-name="Teacher Value Proposition_Hero" transform="translate(-99.897 -31.077)">
    <g id="Layer_4" data-name="Layer 4">
      <path id="Intersection_1" data-name="Intersection 1" d="M507.506,635.817c-58.15-17.623-114.509-42-163.342-77.948-111.045-81.732-168.188-227.9-87.524-352.142C298.666,141,373.39,98.744,450.521,96.1c76.962-2.639,150.123,31.36,217.773,68.15,21.132,11.492,42.216,23.4,64.983,31.163,67.512,23.026,143.14,7.663,211.417,28.312,97.544,29.5,156.14,123.554,124.224,222.589-32.285,100.18-123.68,174.207-224.628,204S634.248,670.4,532.623,643Q520.026,639.6,507.506,635.817Z" fill="#e8eaf6"/>
      <path id="Path_143056" data-name="Path 143056" d="M247.529,404.811c-26.269-55.63-8.867-143.078,18.362-191.038,33.038-58.191,96.76-103.621,169.77-114.412s153.145,15.907,194.632,69.763c20.223,26.251,31.015,57.6,33.925,89.2,7.043,76.439-33.956,154.964-104.5,200.156-89.374,57.252-230.634,52.545-300.546-34.836A94.813,94.813,0,0,1,247.529,404.811Z" opacity="0.94" fill="url(#linear-gradient)" style="mix-blend-mode: color-dodge;isolation: isolate"/>
      <path id="Path_7022" data-name="Path 7022" d="M111.426,590.864C92.486,537.464,76,434.786,242.5,373.005s226.73-167.459,226.73-167.459,44.282-70.786,145.111-65.783S780.577,287.337,780.577,287.337,911.383,553.721,678.385,641.265s-442.83,33.765-442.83,33.765S130.365,644.267,111.426,590.864Z" fill="#ef5350" opacity="0.1" style="isolation: isolate"/>
      <path id="Path_143057" data-name="Path 143057" d="M910.431,483.9l-10.255-2.279-37.09,122.235a3.491,3.491,0,1,0,6.574,2.083Z" fill="#324496"/>
      <path id="Path_143058" data-name="Path 143058" d="M1022.1,490.671l11.093-3.516L1078.7,638.6a3.555,3.555,0,0,1,.2.479,3.491,3.491,0,1,1-6.77,1.605Z" fill="#324496"/>
      <path id="Path_143059" data-name="Path 143059" d="M988.63,485.605l10.255-2.279,37.091,122.235a3.586,3.586,0,0,1,.2.478,3.491,3.491,0,1,1-6.771,1.606Z" fill="#324496"/>
      <path id="Path_143060" data-name="Path 143060" d="M962.419,488.961l-11.092-3.515L905.813,636.894a3.67,3.67,0,0,0-.2.479,3.491,3.491,0,1,0,6.771,1.605Z" fill="#324496"/>
      <path id="Path_143061" data-name="Path 143061" d="M999.28,482.92a248.774,248.774,0,0,1-69.6,1.964c-3.823-.433-7.714-.952-11.493-.227s-7.506,2.946-8.943,6.516c-1.493,3.708-.253,7.892.994,11.689s2.523,7.665,4.758,10.988,5.593,6.1,9.55,6.712c2.883.447,5.8-.27,8.634-.983,3.233-.814,6.63-2.233,9.938-1.6,3.235.624,6.885,2.916,10.083,4a221.21,221.21,0,0,0,24.823,6.822,210.013,210.013,0,0,0,49.4,4.849c3.671-.056,7.454-.229,10.786-1.771a24.418,24.418,0,0,0,7.463-6.056,184.193,184.193,0,0,0,11.625-14.63l37.3-50.344c9.107-12.293,18.309-25.6,18.254-41.495-.026-7.392-.4-18.224-9.028-20.06a101.763,101.763,0,0,1-15.1-4.333,15.223,15.223,0,0,0-13.326,1.538c-4.986,3.109-8.312,8.237-11.338,13.274-6.074,10.111-10.922,21.224-18.881,29.85-8.868,9.611-15.758,22-23.53,32.546a24.829,24.829,0,0,1-5.856,6.262c-5.271,3.511-12.069,3.757-18.112,3.188-7.862-.742-15.834.09-23.754-.489-24.691-1.806-49.319-5.96-74.05-4.841a13.036,13.036,0,0,0-5.042.931c-4.045,1.917-5.161,7.291-4.337,11.69,1.554,8.3,7.789,14.775,12.965,21.448,6.774,8.729,21.934,14.553,37.316,21.96" fill="#7986cb"/>
      <g id="Group_46911" data-name="Group 46911">
        <g id="Group_46905" data-name="Group 46905">
          <path id="Path_143062" data-name="Path 143062" d="M996.228,358.467c-1.069,11.148,1.395,22.292,2.343,33.451s.121,23.2-6.551,32.192c15.219,2.284,31.044-5.046,40.661-17.061s13.358-28.1,11.994-43.427c-.769-8.643.585-20.856-5.129-27.386-5.829-6.661-19.666-7.711-28.037-3.159C1002.718,337.856,997.129,349.065,996.228,358.467Z" fill="#fac72e"/>
          <path id="Path_143063" data-name="Path 143063" d="M1042.2,344.934a46.216,46.216,0,0,0-17.757-6.169c-5.067-.732-10.927-.9-15.918.927-3.686,5.613-4.946,12.468-4.662,19.1.17,3.949,2.095,18.956,8.069,24.039,7.867,6.7,23.832-8.016,26.8-13.324,3.83-6.856,5.506-11.928,4.513-19.605A35.279,35.279,0,0,0,1042.2,344.934Z" fill="#7c5442"/>
          <path id="Path_143064" data-name="Path 143064" d="M1027.631,379.571l17.541,21.988,9.8-14.172-16.24-17.883Z" fill="#7c5442"/>
          <path id="Path_143065" data-name="Path 143065" d="M1011.71,334.391c-4.989,3.287-8.034,5.991-6.446,11.542,1.2,4.192,20.949,33.575,45.173,36.462-1.3-2.307-4.179-10.647-2.61-17.8s2.218-14.822-.786-21.615C1041.432,330.3,1023.111,326.878,1011.71,334.391Z" fill="#fac72e"/>
        </g>
        <path id="Path_143066" data-name="Path 143066" d="M853.013,521.556a13.913,13.913,0,0,1-4.773-.086c-.719-.139-1.529-.425-1.775-1.115a1.6,1.6,0,0,1,.774-1.767,5.27,5.27,0,0,1,1.983-.589c5.693-.972,10.907-3.711,16.012-6.411,5.964-3.154,11.947-6.076,16.843-10.816,4.461-4.32,8.155-9.331,12.141-14.073,13.275-15.8,26.333-31.784,39.734-47.474a336.82,336.82,0,0,1,39.116,17.216c7.326,3.8,14.442,8,21.716,11.9,3.434,1.839,10.389,5.859,14.062,7.192,2.878,1.045,6.336-4.56,7.708-7.584.694-1.531.486-3.3.4-4.974a62.687,62.687,0,0,1,.421-9.183c.911-9.6,1.846-19.307,5.062-28.394,1.2-3.4,2.715-6.679,4.224-9.953q2.9-6.283,5.794-12.567a27.4,27.4,0,0,1,3.694-6.417c2.436-2.872,6.428-4,9.756-5.548,2.4-1.119,4.8-3.038,7.295-3.869,5.356-1.714,10.468,6.284,12.8,10.427,5.528,9.808,4.686,21.871,2.936,32.993-3.8,24.165-11.317,48.115-25.118,68.313-7.937,11.617-17.541,20.318-32.143,20.475-13.138.142-26.131-5.433-36.172-13.691-14.426-11.864-23.886-28.553-33.021-44.845q-.695,1.959-1.57,3.846c-3.848,8.293-10.212,15.13-17.214,20.881A131.723,131.723,0,0,1,906.34,497.3c-5.439,3.171-19.4,11.448-20.206,18.788-.154,1.4,0,2.958-.862,4.072-2.3,2.969-8.351,1.05-11.376.724a50.523,50.523,0,0,0-11.5-.362c-3.253.4-6.476,1.159-9.725,1.732-2.333.411-4.969.386-6.78-1.141a1.609,1.609,0,0,1-.673-1.111c-.019-.781.852-1.242,1.6-1.48,3.117-.995,6.424-1.384,9.439-2.654,3.331-1.4,6.108-3.825,9.412-5.275a86.013,86.013,0,0,0,9.955-4.925" fill="#7c5442"/>
        <g id="Group_46907" data-name="Group 46907">
          <g id="Group_46906" data-name="Group 46906">
            <path id="Path_143067" data-name="Path 143067" d="M1035.042,510.861c-6.661-4.6-14.79-10.829-19.547-17.386a45.23,45.23,0,0,1-7.914-18.91c5.759-2.949,7.5-10.742,7.651-16.674.213-8.195,1.994-16.223,1.468-24.574a37.266,37.266,0,0,1-.027-8.549c.574-3.391,2.273-6.474,4.013-9.441a127.384,127.384,0,0,1,11.3-16.563c1.874-2.278,3.976-5.015,6.507-6.593,2.225-1.388,4.957-1.579,7.385-2.439,2.446-.868,4.855-1.889,7.323-2.692,5.356-1.714,10.468,6.284,12.8,10.427,5.528,9.808,4.686,21.871,2.936,32.993-3.8,24.166-11.317,48.115-25.118,68.313C1040.993,502.91,1038.441,507.718,1035.042,510.861Z" fill="#edf2e7"/>
          </g>
        </g>
        <path id="Path_143068" data-name="Path 143068" d="M894.218,486.7c13.275-15.8,26.333-31.784,39.734-47.474a336.82,336.82,0,0,1,39.116,17.216c6.4,3.318,28.533,16.149,34.513,18.124a2.366,2.366,0,0,0,1.048-.2,41.119,41.119,0,0,0,2.028,7.546c3.429,9.122,9.849,16.834,17.224,23.07,2.086,1.764,4.267,3.415,6.512,4.976-6.115,5.6-13.394,9.192-22.716,9.292-13.138.142-26.131-5.433-36.172-13.691-14.426-11.864-23.886-28.553-33.021-44.845q-.695,1.959-1.57,3.846c-3.848,8.293-10.212,15.13-17.214,20.881A131.723,131.723,0,0,1,906.34,497.3c-1.043.608-2.294,1.2-3.638,1.821a39.372,39.372,0,0,1-9.958-10.682C893.233,487.862,893.72,487.292,894.218,486.7Z" fill="#324496"/>
        <path id="Path_143069" data-name="Path 143069" d="M1027.472,514.5c-4.789,5.005-16.086,6.531-21.179,7.608a159.609,159.609,0,0,1-32.3,3.216c-18.509.088-36.929-2.313-55.282-4.711.338.045,1.3,2.258,1.5,2.612,3.583,6.342,8.574,14.766,9.045,22.2.5,7.838.884,15.893.774,23.792-.1,7.209-1.418,14.454-1.324,21.631a10.325,10.325,0,0,0,3.3,7.87c2.068,1.711,5.17,2.511,6.1,5.029.577,1.573.072,3.314-.434,4.911-.356-.021-3.162,9.725-3.363,10.676-.781,3.682-.985,7.614-1.486,11.351a6.331,6.331,0,0,1-.905,2.946c-1.254,1.726-8.875,3.186-9.3.138-.182-1.312.63-2.525,1.142-3.746,1.295-3.086.716-6.6.11-9.89-1.054-5.73-2.125-11.457-3.28-17.167-1.65-8.151-3.205-16.452-5.7-24.362-2.541-8.059-5.085-16.12-7.309-24.274-4.416-16.186-7.706-32.991-6.6-49.844.29-4.413.956-9.463,4.648-11.9,2.111-1.392,4.768-1.581,7.292-1.727,28.553-1.661,57.125-3.322,85.726-3.276,9.944.016,15.16,5.492,21.947,12.66,2.361,2.494,8.84,5.048,9.066,8.475A7.377,7.377,0,0,1,1027.472,514.5Z" fill="#7c5442"/>
        <path id="Path_143070" data-name="Path 143070" d="M929.26,545.429c.5,7.838.884,15.893.774,23.792-.05,3.657-.414,7.324-.748,10.986a66.817,66.817,0,0,0-8.514-.715,49.768,49.768,0,0,0-5.547.264c-.115-.381-.208-.77-.327-1.148-2.541-8.059-5.085-16.121-7.309-24.274-4.416-16.186-7.706-32.991-6.6-49.844.29-4.413.956-9.463,4.648-11.9,2.111-1.392,4.768-1.581,7.292-1.728,28.553-1.66,45.9-5.621,78.928-6.436,3.929-.1,18.661-1.46,20.386,1.179,2.363,3.614,5.638,8.187,9.053,13.083,3.5,5.023,14.13,11.584,14.13,11.584-6.371,10.086-20.436,11.893-25.529,12.97-10.6,2.244-25.072,2.027-35.9,2.078-18.509.088-31.595-1.337-49.744-4.967C927.1,520.927,928.789,537.991,929.26,545.429Z" fill="#5666ad"/>
        <g id="Group_46910" data-name="Group 46910">
          <g id="Group_46909" data-name="Group 46909">
            <g id="Group_46908" data-name="Group 46908">
              <path id="Path_143071" data-name="Path 143071" d="M970.075,454.682c2.534,1.068,5.133.693,5.777-.833s-.9-3.648-3.438-4.716l-28.767-12.125a10.715,10.715,0,0,1-5.63-6.836l-10.079-48.248c-.562-2.692-2.348-4.617-3.969-4.278s-2.488,2.818-1.925,5.51l10.724,51.338a10.717,10.717,0,0,0,5.63,6.837Z" fill="#b6b2af"/>
            </g>
          </g>
        </g>
        <path id="Path_143072" data-name="Path 143072" d="M985.547,440.273l26.636,6.242a3.6,3.6,0,0,0,2.047.074,3.5,3.5,0,0,0,1.325-1.068c6.352-7.2,10.8-15.919,15.24-24.37,1.552-2.957,3.1-5.916,4.508-8.946a24.422,24.422,0,0,1,2.914-5.253,11.184,11.184,0,0,1,12.607-3.2c4.294,1.779,7.745,4.461,7.952,10.75.125,3.819-2.05,7.884-4.607,10.576-2.83,2.979-11.883,17.054-13.877,20.576a146.541,146.541,0,0,1-10.523,16.034c-1.577,2.091-3.336,4.233-5.792,5.143-4.054,1.5-8.828-.139-12.541-1.823a138.489,138.489,0,0,1-24.89-14.6c-1.858-1.369-3.893-2.854-6.2-2.747-2.354.108-3.938,1.023-6.284.363a21.068,21.068,0,0,1-6.941-3.2c-1.544-1.135-2.984-2.54-4.835-3.037-1.814-.486-3.726-.019-5.6.149s-4.008-.085-5.165-1.564c3.8-2.856,8.7-3.922,13.45-3.868s9.421,1.144,14.046,2.228Z" fill="#7c5442"/>
      </g>
      <path id="Path_143073" data-name="Path 143073" d="M933.938,529.472c-8.545-3.988-11.082-12.338-5.7-18.8,5.7-6.837,20.51-2.279,29.055,0a361.8,361.8,0,0,0,55.831,10.255c5.1.562,13.673-8.546,24.035-24.048,15.875-23.749,51.582-84.393,55.724-89.893s13.262-13.677,18.168-1.094c6.253,16.033,1.672,39.359-5.537,54.986-5.6,12.141-9.516,27.661-15.117,39.8-5.293,11.473-16.776,45.3-42.263,53.56-18.433,5.976-47.392.048-73.18-8.816C956.727,539.157,935.939,530.406,933.938,529.472Z" fill="#c1c6e4"/>
      <rect id="Rectangle_31885" data-name="Rectangle 31885" width="19" height="19" transform="translate(304 202)" fill="#fff"/>
      <rect id="Rectangle_31886" data-name="Rectangle 31886" width="19" height="19" transform="translate(948 327)" fill="#fff"/>
      <rect id="Rectangle_31887" data-name="Rectangle 31887" width="19" height="19" transform="translate(665 592)" fill="#fff"/>
      <ellipse id="Ellipse_9017" data-name="Ellipse 9017" cx="117.578" cy="33.466" rx="117.578" ry="33.466" transform="translate(856.844 593)" opacity="0.25" fill="url(#radial-gradient)"/>
    </g>
    <g id="Layer_25" data-name="Layer 25">
      <path id="Path_143074" data-name="Path 143074" d="M460.208,31.077v408l135,2L925.905,291l.3-259.921Z" opacity="0.94" fill="url(#linear-gradient-2)" style="mix-blend-mode: color-dodge;isolation: isolate"/>
      <rect id="Rectangle_31888" data-name="Rectangle 31888" width="491" height="316" rx="25.833" transform="translate(410.5 59.923)" fill="#7986cb"/>
      <rect id="Rectangle_31889" data-name="Rectangle 31889" width="466.5" height="282.79" rx="13.761" transform="translate(422.75 70.528)" fill="#fff"/>
      <path id="Path_143075" data-name="Path 143075" d="M423.208,89.077v408l135,2L888.905,347l.3-257.921Z" opacity="0.94" fill="url(#linear-gradient-3)" style="mix-blend-mode: color-dodge;isolation: isolate"/>
      <g transform="matrix(1, 0, 0, 1, 99.9, 31.08)" filter="url(#Rectangle_31890)">
        <rect id="Rectangle_31890-2" data-name="Rectangle 31890" width="290.229" height="234.392" rx="9.745" transform="translate(349.08 59)" fill="#fff"/>
      </g>
      <path id="Path_143076" data-name="Path 143076" d="M727.873,90.077H459.433c-6.017,0-10.9,3.9-10.9,8.717v31.682h290.23V98.794C738.768,93.98,733.89,90.077,727.873,90.077Z" fill="url(#linear-gradient-4)"/>
      <rect id="Rectangle_31891" data-name="Rectangle 31891" width="218.878" height="41.925" rx="5.898" transform="translate(477.214 153.077)" fill="#c1c6e4"/>
      <rect id="Rectangle_31892" data-name="Rectangle 31892" width="57.53" height="54.888" rx="5.667" transform="translate(557.888 212.634)" fill="none" stroke="#c1c6e4" stroke-miterlimit="10" stroke-width="3"/>
      <rect id="Rectangle_31893" data-name="Rectangle 31893" width="57.53" height="54.888" rx="5.667" transform="translate(637.888 212.839)" fill="none" stroke="#c1c6e4" stroke-miterlimit="10" stroke-width="3"/>
      <rect id="Rectangle_31894" data-name="Rectangle 31894" width="57.53" height="54.888" rx="5.667" transform="translate(477.888 212.839)" fill="none" stroke="#c1c6e4" stroke-miterlimit="10" stroke-width="3"/>
      <text id="_" data-name="+" transform="translate(580.357 296.764)" fill="#c1c6e4" font-size="24.146" font-family="OpenSans-Bold, Open Sans" font-weight="700"><tspan x="0" y="0">+</tspan></text>
      <path id="Path_143077" data-name="Path 143077" d="M817.776,104.748l5.8,11.75a2.99,2.99,0,0,0,2.252,1.636l12.967,1.884a2.992,2.992,0,0,1,1.658,5.1l-9.383,9.146a2.99,2.99,0,0,0-.86,2.648l2.215,12.914a2.991,2.991,0,0,1-4.34,3.153l-11.6-6.1a2.992,2.992,0,0,0-2.784,0l-11.6,6.1a2.991,2.991,0,0,1-4.34-3.153l2.215-12.914a2.993,2.993,0,0,0-.861-2.648l-9.383-9.146a2.992,2.992,0,0,1,1.658-5.1l12.967-1.884a2.988,2.988,0,0,0,2.252-1.636l5.8-11.75A2.992,2.992,0,0,1,817.776,104.748Z" fill="url(#linear-gradient-5)"/>
      <g transform="matrix(1, 0, 0, 1, 99.9, 31.08)" filter="url(#Path_143078)">
        <path id="Path_143078-2" data-name="Path 143078" d="M615.1,341.2H560.58a16.72,16.72,0,1,1,0-33.44H615.1a16.72,16.72,0,0,1,0,33.44Z" transform="translate(-99.9 -31.08)" fill="#fff"/>
      </g>
      <text id="_lessons" data-name=" lessons" transform="translate(557.752 329.971)" fill="#5666ad" font-size="14.733" font-family="OpenSans-Bold, Open Sans" font-weight="700"><tspan x="0" y="0" xml:space="preserve"> lessons</tspan></text>
      <g transform="matrix(1, 0, 0, 1, 99.9, 31.08)" filter="url(#Path_143079)">
        <path id="Path_143079-2" data-name="Path 143079" d="M615.1,341.2H560.58a16.72,16.72,0,1,1,0-33.44H615.1a16.72,16.72,0,0,1,0,33.44Z" transform="translate(-99.9 -31.08)" fill="url(#linear-gradient-6)"/>
      </g>
      <text id="_lessons-2" data-name=" lessons" transform="translate(557.752 329.971)" fill="#5666ad" font-size="14.733" font-family="OpenSans-Bold, Open Sans" font-weight="700"><tspan x="0" y="0" xml:space="preserve"> lessons</tspan></text>
      <path id="Path_142118" data-name="Path 142118" d="M664.019,291.864,662,253.372,690.589,276.1,682,281.458l9.9,16.871-8.487,4.748-9.7-17.276Z" fill="#7986cb"/>
      <line id="Line_4328" data-name="Line 4328" x2="67" transform="translate(781.208 188.577)" fill="#c1c6e4" stroke="#c1c6e4" stroke-miterlimit="10" stroke-width="1"/>
      <line id="Line_4329" data-name="Line 4329" x2="67" transform="translate(781.208 214.577)" fill="#c1c6e4" stroke="#c1c6e4" stroke-miterlimit="10" stroke-width="1"/>
      <line id="Line_4330" data-name="Line 4330" x2="67" transform="translate(781.208 240.577)" fill="#c1c6e4" stroke="#c1c6e4" stroke-miterlimit="10" stroke-width="1"/>
    </g>
    <g id="Layer_3" data-name="Layer 3">
      <g id="Group_46925" data-name="Group 46925">
        <path id="Path_143080" data-name="Path 143080" d="M523.514,347.133s7.1,47.024,16.128,58.159c6.386,7.875,30.82,7.133,21.824-13.033-9.17-20.556-30.079-46.89-30.079-46.89Z" fill="#2c328f"/>
        <g id="Group_46912" data-name="Group 46912">
          <ellipse id="Ellipse_9018" data-name="Ellipse 9018" cx="3.874" cy="6.847" rx="3.874" ry="6.847" transform="translate(520.062 312.253) rotate(-22.497)" fill="url(#radial-gradient-2)"/>
        </g>
        <path id="Path_143081" data-name="Path 143081" d="M342.875,505.29c-3.844,14.409,4.219,18.386,7.7,26.18s2.486,5.156,11.807,4.616l12.513-.655,3.631-10.2c-8.385-3.64-17.67-5.315-26.493-13.037-2.164-1.893-3.478-4.845-4.679-7.15C347.646,505.6,346.343,492.291,342.875,505.29Z" fill="#e9b495"/>
        <ellipse id="Ellipse_9019" data-name="Ellipse 9019" cx="183.489" cy="13.931" rx="183.489" ry="13.931" transform="translate(325.76 519.38)" opacity="0.4" fill="url(#radial-gradient-3)"/>
        <g id="Group_46913" data-name="Group 46913">
          <path id="Path_143082" data-name="Path 143082" d="M630.1,394.581a10.4,10.4,0,0,1,.336,6.965,20.115,20.115,0,0,1-.914,2.706c-.51,1.238-.494,1.234-1.8,1.028a19.385,19.385,0,0,0-5.959.465c-2.421.373-5.266.336-6.891-1.43a9.536,9.536,0,0,0-1.565-1.753c-1.381-.906-3.239-.111-4.656.724s-3.181,1.727-4.655.967c-.952-.492-1.484-1.569-2.48-1.974-1.5-.611-3.064.565-4.312,1.553s-3.188,1.842-4.361.759a9.655,9.655,0,0,1-.771-.99,4.2,4.2,0,0,0-4.183-.99,23.861,23.861,0,0,0-4.12,1.8,3.5,3.5,0,0,1-1.685.416c-1.331-.1-2.117-1.414-3.047-2.333a6.3,6.3,0,0,0-6.577-1.293c-1.165.47-2.137,1.283-3.252,1.85a3.964,3.964,0,0,1-3.626.253c-.976-.544-1.429-1.637-2.145-2.471a5.284,5.284,0,0,0-5.827-1.35c-1.361.568-2.417,1.706-3.832,2.14a4.207,4.207,0,0,1-4-.859c-.7-.789-.288-2.022-.621-3.078-.694-2.2-2.655-4.346-2.09-6.764.809-3.465,6.445-4.272,7.2-7.748.663-3.041-2.925-5.536-3.237-8.634-.309-3.06,2.551-5.428,5.006-7.4a3.136,3.136,0,0,0,1.363-1.833,3.265,3.265,0,0,0-.556-1.857c-1.3-2.479-2.243-5.663-.47-7.838,1.35-1.657,4.148-2.614,4.012-4.716-.088-1.366-1.452-2.282-2.343-3.361a5.731,5.731,0,0,1,1.129-8.111c1.227-.857,3.011-1.6,2.931-3.055a2.987,2.987,0,0,0-.574-1.389,21.293,21.293,0,0,1-2.9-5.183,6.21,6.21,0,0,1,1.449-5.333c.979-1.154,1.906-1.263,2.44-2.551a4.76,4.76,0,0,0,.086-2.923c-.408-2.022-.037-4.024.707-8.027.91-4.9,4.587-8.343,6.725-10.345,2.581-2.417,6.994-6.55,13.491-6.6a16.9,16.9,0,0,1,8.857,2.556,13.2,13.2,0,0,1,4.4-.953,15.177,15.177,0,0,1,9.444,3.235,17.914,17.914,0,0,1,5.883,6.669c1.381,2.791.624,3.311,2.341,8.067,1.624,4.5,2.474,4.512,2.453,6.547-.038,3.61-2.726,4.873-1.95,7.447.5,1.659,1.125,1.895,3.356,3.681,2.438,1.951,3.807,5.651,1.84,8.011-1.053,1.263-2.988,2.182-2.879,3.8a2.985,2.985,0,0,0,1.088,1.869c1.374,1.279,3.178,2.043,4.7,3.166s2.808,2.871,2.44,4.659c-.512,2.492-4,4.055-3.6,6.571.228,1.43,1.646,2.356,2.814,3.284s2.273,2.407,1.635,3.713c-.448.914-1.6,1.344-2.124,2.219a3.094,3.094,0,0,0,.7,3.469c.836.971,1.961,1.688,2.79,2.663a6.046,6.046,0,0,1,.548,6.977c-1.114,1.789-3.227,3.127-3.461,5.2C624.477,389.726,628.392,390.889,630.1,394.581Z" fill="#282828"/>
        </g>
        <path id="Path_143083" data-name="Path 143083" d="M591.765,538.924c-50.958,0-52.672-43.672-38.51-64.708L561,462.706h61.93l7.715,11.6C644.623,495.323,642.724,538.924,591.765,538.924Z" fill="#7986c1"/>
        <g id="Group_46915" data-name="Group 46915">
          <path id="Path_143084" data-name="Path 143084" d="M372.5,522.012l.76,14.187,236.29,2.709c14.122-.191,38.343-33.428-13-40.4C535.913,490.277,372.5,522.012,372.5,522.012Z" fill="#7986c1"/>
          <g id="Group_46914" data-name="Group 46914" clip-path="url(#clip-path)">
            <ellipse id="Ellipse_9020" data-name="Ellipse 9020" cx="232.81" cy="102.417" rx="232.81" ry="102.417" transform="translate(445.645 405.059) rotate(-0.486)" fill="#e8eaf6" style="mix-blend-mode: color-burn;isolation: isolate"/>
          </g>
        </g>
        <path id="Path_143086" data-name="Path 143086" d="M409.842,572.3c10.551,10.54,18.573,3.061,27.064,3.945s8.148-7.359,10.192-11.586a21.636,21.636,0,0,1,5.93-7.077l-7.7-7.609c-6.2,6.812-13.277,11.589-24.378,15.363-2.722.926-6.478,3.075-9.075,2.961C412.5,568.324,400.324,562.792,409.842,572.3Z" fill="#e9b495"/>
        <g id="Group_46917" data-name="Group 46917">
          <path id="Path_143087" data-name="Path 143087" d="M527.612,462.128s49.306-51.427,48.044-65.707-10.559-37.86-23.987-20.683c-13.862,17.733-34.852,48.265-43.61,67.1C502.5,454.8,518.3,471.7,527.612,462.128Z" fill="#2c328f"/>
          <g id="Group_46916" data-name="Group 46916" clip-path="url(#clip-path-2)">
            <ellipse id="Ellipse_9021" data-name="Ellipse 9021" cx="48.55" cy="38.12" rx="48.55" ry="38.12" transform="matrix(0.167, -0.986, 0.986, 0.167, 507.432, 475.552)" fill="url(#radial-gradient-4)"/>
          </g>
        </g>
        <path id="Path_143089" data-name="Path 143089" d="M537.747,461.412c22.809,10.966,76.055,33.127,76.055,33.127,20.74,8.482,23.175,46.484-12.907,37.709-16.345-3.975-47-22.322-77.729-43.389C508.991,479.266,522.551,454.106,537.747,461.412Z" fill="#7986c1"/>
        <g id="Group_46919" data-name="Group 46919">
          <path id="Path_143090" data-name="Path 143090" d="M621.73,451c0,7.873-2.545,16.364-4.106,20.869,0,0-10.886,4.565-31.167,4.565a109.47,109.47,0,0,1-30.763-4.565c-3.56-4.756-4.511-9.059-4.511-20.869,0-9.609-11.65-32.348-8.047-43.523,3-9.3,4.143-22.06,9.028-29.936a30.833,30.833,0,0,1,7.3-8.214c8.908-6.917,18.984-7.121,26.994-7.215a60.507,60.507,0,0,1,27.475,6.063c5.13,2.571,9.032,4.527,12.31,8.617,6.747,8.417,5.642,19.373,4.123,32.555C628.14,428.654,621.73,438.162,621.73,451Z" fill="#2c328f"/>
          <g id="Group_46918" data-name="Group 46918" clip-path="url(#clip-path-3)">
            <ellipse id="Ellipse_9022" data-name="Ellipse 9022" cx="115.332" cy="91.996" rx="115.332" ry="91.996" transform="translate(463.198 406.022)" fill="url(#radial-gradient-5)"/>
            <circle id="Ellipse_9023" data-name="Ellipse 9023" cx="80.227" cy="80.227" r="80.227" transform="translate(557.787 342.764)" fill="url(#radial-gradient-6)"/>
          </g>
        </g>
        <g id="Group_46921" data-name="Group 46921">
          <path id="Path_143092" data-name="Path 143092" d="M584.736,368.43c-4.327-.646-4.327-4.378-4.327-7.781l.953-20.333h9.682l1.612,21.953C592.656,366.811,588.506,368.993,584.736,368.43Z" fill="#e9b495"/>
          <g id="Group_46920" data-name="Group 46920" clip-path="url(#clip-path-4)">
            <ellipse id="Ellipse_9024" data-name="Ellipse 9024" cx="22.849" cy="19.854" rx="22.849" ry="19.854" transform="translate(563.612 322.642)" fill="url(#radial-gradient-7)"/>
          </g>
        </g>
        <path id="Path_143094" data-name="Path 143094" d="M608.2,330.94c-1.888,13.518-14.5,23.78-24.138,23.078s-18.975-15.315-17.088-28.834,12.539-21.711,23.923-20.121S610.091,317.421,608.2,330.94Z" fill="#e9b495"/>
        <path id="Path_143095" data-name="Path 143095" d="M605.878,336.845a4.263,4.263,0,0,0,5.273-2.09c1.35-2.6-.6-5.679-2.929-4.86Z" fill="#f8c299"/>
        <path id="Path_143096" data-name="Path 143096" d="M635.6,460.794s-32.077-50.65-33.471-64.918c-1.726-17.649,21.2-33.1,29-12.739,8.053,21.018,26.271,50.951,29.12,71.529C662.057,467.728,641.7,472.676,635.6,460.794Z" fill="#2c328f"/>
        <path id="Path_143097" data-name="Path 143097" d="M581.522,305.85c7.71.28,11.166,2.7,12.885,4.951,2.483,3.253,1.6,6.491,5.557,11.459a41.3,41.3,0,0,0,4.539,4.687,37.15,37.15,0,0,0,3.8,2.888,19.419,19.419,0,0,0,1.2-4.179,18.672,18.672,0,0,0-1.139-10.591,18.383,18.383,0,0,0-8.531-8.773C591.479,301.916,582.907,305.281,581.522,305.85Z" fill="#282828"/>
        <path id="Path_143098" data-name="Path 143098" d="M448.032,562.88l-8.387-7.174s50.212-74.189,72.457-100.368c12.956-15.248,50.564,8.964,30.939,29.717C494.524,536.361,448.032,562.88,448.032,562.88Z" fill="#7986c1"/>
        <path id="Path_143099" data-name="Path 143099" d="M597.645,483.131s47-7.261,58.1-16.33c7.852-6.414,7.026-30.846-13.109-21.779-20.524,9.242-46.785,30.242-46.785,30.242Z" fill="#2c328f"/>
        <g id="Group_46923" data-name="Group 46923">
          <path id="Path_143100" data-name="Path 143100" d="M595.781,475.757c-.211-1.26-.972-2.537-3.686-4.465-3.707-2.634-8.8-4.881-9.425-3.95-.341.512.748,1.871,1.317,2.457,1.205,1.241,2.09,1.1,3.194,2.12,1.225,1.134.81,1.934,1.829,3.555,1.509,2.4,4.652,4.2,6.013,3.363C595.917,478.289,595.935,476.673,595.781,475.757Z" fill="#e9b495"/>
          <g id="Group_46922" data-name="Group 46922" clip-path="url(#clip-path-5)">
            <circle id="Ellipse_9025" data-name="Ellipse 9025" cx="6.847" cy="6.847" r="6.847" transform="translate(579.107 467.215)" fill="url(#radial-gradient-8)"/>
          </g>
        </g>
        <g id="Group_46924" data-name="Group 46924">
          <path id="Path_143102" data-name="Path 143102" d="M512.39,473.477l69.882,8.4,2.966-2.3a3,3,0,0,0,1.128-2.84l-6.894-43.913a2.061,2.061,0,0,0-1.864-1.733l-71.773-5.971a3.006,3.006,0,0,0-2.374.87l-2.948,2.951,10.013,42.8A2.06,2.06,0,0,0,512.39,473.477Z" fill="url(#linear-gradient-7)"/>
          <path id="Path_143103" data-name="Path 143103" d="M509.068,476.289l71.823,5.975a2.061,2.061,0,0,0,2.206-2.373l-6.947-44.25a2.062,2.062,0,0,0-1.864-1.733l-71.824-5.975a2.059,2.059,0,0,0-2.205,2.372l6.947,44.251A2.06,2.06,0,0,0,509.068,476.289Z" fill="gray"/>
        </g>
        <path id="Path_143104" data-name="Path 143104" d="M574.871,472.294c1.454-1.69,4.093-1.436,6.287-1.037,4.128.751,14.7,4.007,14.7,4.007l1.791,7.867s-5.209,2.629-7.6,3.054a13.811,13.811,0,0,1-3.984.272,11.9,11.9,0,0,1-8.014-4.058,5.067,5.067,0,0,1-1.069-2.426c-.4-1.085-1.157-.95-1.675-2s.315-1.562-.081-2.057C574.213,474.658,573.853,473.477,574.871,472.294Z" fill="#e9b495"/>
      </g>
    </g>
    <g id="Layer_24" data-name="Layer 24">
      <ellipse id="Ellipse_9026" data-name="Ellipse 9026" cx="183.489" cy="13.931" rx="183.489" ry="13.931" transform="translate(245.844 620.069)" opacity="0.21" fill="url(#radial-gradient-9)"/>
      <g id="Group_46927" data-name="Group 46927">
        <path id="Path_143105" data-name="Path 143105" d="M378.237,481.964,304,428.316,286.067,617.925l104.791-74.386Z" fill="url(#linear-gradient-8)"/>
        <g id="Group_46926" data-name="Group 46926">
          <path id="Path_143106" data-name="Path 143106" d="M584.3,628.608l15.968-.57s8.465,2.7,11.346,1.8,8.465-38.36,5.583-41.242-12.246,15.128-12.246,15.128-8.1,9.545-10.806,10.266-11.34-.225-11.34-.225Z" fill="#f8cabb"/>
          <path id="Path_143107" data-name="Path 143107" d="M244.667,503.668s-2.869,11.187-2.3,17.641,20.939,7.314,21.369,2.438-4.159-22.66-4.159-22.66Z" fill="#f8cabb"/>
          <path id="Path_143108" data-name="Path 143108" d="M376.576,582.034s65.208-5.186,141.53,14.079,72.774,15.693,72.774,15.693l-.383,17.975-233.187-.323Z" fill="#f6b115"/>
          <path id="Path_143109" data-name="Path 143109" d="M244.471,503.868s-26.39-23.6-7.18-43.245c15.994-16.358,28.063,2.193,30.255-.438s18.855-9.647,22.143-2.193-17.977,23.02-17.977,23.02S238.3,472.216,244.471,503.868Z" fill="#353535"/>
          <ellipse id="Ellipse_9027" data-name="Ellipse 9027" cx="19.762" cy="22.52" rx="19.762" ry="22.52" transform="translate(240.182 467.365)" fill="#f8cabb"/>
          <path id="Path_143110" data-name="Path 143110" d="M263.024,516.361l-.753-3.98L250.547,509.4S256.212,516.719,263.024,516.361Z" fill="#f8cabb" opacity="0.5" style="mix-blend-mode: multiply;isolation: isolate"/>
          <path id="Path_143111" data-name="Path 143111" d="M244.471,503.868s4.358-18.169.987-28.528c0,0,37.079,2.219,31.652-7.728s-39.3-8.88-38.229,8.468S236.743,494.907,244.471,503.868Z" fill="#353535"/>
          <ellipse id="Ellipse_9028" data-name="Ellipse 9028" cx="5.866" cy="7.07" rx="5.866" ry="7.07" transform="translate(238.196 482.301)" fill="#f8cabb"/>
          <path id="Path_143112" data-name="Path 143112" d="M514.2,611.049l11.1,14.144s2.948,8.751,5.476,10.61,37.332-16.528,37.971-20.714-20.206-.942-20.206-.942-12.982-.91-15.248-2.729-9.486-14.166-9.486-14.166Z" fill="#f8cabb"/>
          <path id="Path_143113" data-name="Path 143113" d="M287.788,613.718s26.771,35.568,80.637,19.445c0,0,57.81-16.577,64.12-52.144,0,0,42.643,30.6,88.059,40.348l12.621-11.187s-72.809-108.137-127.643-72.57S287.788,613.718,287.788,613.718Z" fill="#fac72e"/>
          <path id="Path_143114" data-name="Path 143114" d="M242.456,516.086s-18.633,27.453-.849,51.164,52.718,59.244,52.718,59.244l50.257-49.3s-53.221-55.921-81.378-57.4C263.2,519.791,255.053,525.719,242.456,516.086Z" fill="#e95450"/>
          <path id="Path_143115" data-name="Path 143115" d="M342.335,571.9s23.645-18.064,22.537-20.213-9.306,4.288-9.306,4.288,10.148-8.123,8.793-9.824S353.733,554,353.733,554s10.308-11.463,9-12.786-11.63,9.849-11.63,9.849,8.317-10.039,7.22-11.165-9.38,9.058-9.38,9.058l-3.72,4.271s3.476-4.657,2.241-7.035-5.68,7.588-5.68,7.588l-5.741,11.055Z" fill="#f8cabb"/>
          <path id="Path_143116" data-name="Path 143116" d="M224.672,571.66s7.335,41.14,23.341,51.811c36.715,24.476,94.322-51.571,94.322-51.571l-6.294-7.065s-48.779,32.94-66.563,32.2l-7.015-23.892Z" fill="#f8cabb"/>
          <path id="Path_143117" data-name="Path 143117" d="M238.643,522.886s-21.083,16.35-13.338,61.957l41.735,1.434S288.923,518.572,238.643,522.886Z" fill="#e95450"/>
          <path id="Path_143118" data-name="Path 143118" d="M264.554,585.8l6.31.574s7.458-59.471-24.668-63.1C246.2,523.269,272.968,538.758,264.554,585.8Z" fill="#e95450" opacity="0.5" style="mix-blend-mode: multiply;isolation: isolate"/>
        </g>
        <path id="Path_143119" data-name="Path 143119" d="M344.156,577.631l49.188-33.137L377.09,480.243" fill="none" stroke="#fff" stroke-miterlimit="10" stroke-width="8.359"/>
      </g>
    </g>
  </g>
</svg>
